# xmcd CD database file
#
# Track frame offsets:
#	150
#	20552
#	46919
#	66176
#	90595
#	126253
#	162146
#	179846
#	206040
#	262679
#
# Disc length: 3823 seconds
#
# Revision: 0
# Processed by: cddbd v1.4PL0 Copyright (c) Steve Scherf et al.
# Submitted via: CDex 1.51
#
DISCID=870eed0a
DTITLE=Jazzium from Intel - Vol 1
DYEAR=2002
DGENRE=Jazz
TTITLE0=I Don't Want (Gaitana and Unity)
TTITLE1=Our Spanish Love Song (Yuri Shepeta Quartet)
TTITLE2=Oh! Honey! (Valery Volkov)
TTITLE3=Estate (Napua Davoy)
TTITLE4=Green Rumba (World Strings Trio)
TTITLE5=Chick and Stanley (A.Alexanian)
TTITLE6=Celtic Twilight (Gurt to Gurt)
TTITLE7=Prelude (A.Shikloper Quartet)
TTITLE8=Cafe Boa (M.Bogdanowicz Quartet)
TTITLE9=Morrisette (New Tones)
EXTD=YEAR: 2002
EXTT0=
EXTT1=
EXTT2=
EXTT3=
EXTT4=
EXTT5=
EXTT6=
EXTT7=
EXTT8=
EXTT9=
PLAYORDER=
